<svg id="Layer_1" enable-background="new 0 0 511.999 511.999" height="512" viewBox="0 0 511.999 511.999" width="512" xmlns="http://www.w3.org/2000/svg"><g><path d="m256 0c-111.935 0-203 91.065-203 203 0 78.565 45.501 150.119 116.309 183.596l73.972 118.353c2.741 4.385 7.548 7.05 12.72 7.05s9.979-2.665 12.72-7.05l73.972-118.353c70.806-33.477 116.307-105.031 116.307-183.596 0-111.935-91.066-203-203-203zm70.252 361.133c-2.731 1.216-5.037 3.22-6.621 5.754l-63.631 101.81-63.632-101.81c-1.584-2.535-3.89-4.539-6.621-5.754-62.417-27.774-102.747-89.845-102.747-158.133 0-95.393 77.607-173 173-173s173 77.607 173 173c0 68.288-40.331 130.359-102.748 158.133z"/><path d="m277.298 140.132c-6.847-8.861-12.346-15.133-20.799-15.133s-13.952 6.272-20.799 15.133c-5.142 6.653-10.888 15.049-16.18 23.64-10.527 17.089-23.077 41.054-23.077 58.171 0 33.115 26.94 60.056 60.056 60.056s60.056-26.941 60.056-60.056c0-17.118-12.55-41.082-23.077-58.171-5.292-8.591-11.038-16.986-16.18-23.64zm-20.798 111.868c-16.573 0-30.056-13.483-30.056-30.056 0-5.11 4.226-18.215 16.137-38.327 4.899-8.274 9.876-15.659 13.919-21.21 4.043 5.551 9.02 12.936 13.919 21.21 11.911 20.112 16.137 33.217 16.137 38.327-.001 16.573-13.483 30.056-30.056 30.056z"/><path d="m256.5 62.269c-77.875 0-141.23 63.356-141.23 141.23s63.355 141.23 141.23 141.23 141.23-63.356 141.23-141.23-63.355-141.23-141.23-141.23zm0 252.461c-61.333 0-111.23-49.898-111.23-111.23s49.897-111.23 111.23-111.23 111.23 49.898 111.23 111.23-49.897 111.23-111.23 111.23z"/></g></svg>